PathFileType	4	(X/Y/Z)	regression/subject01/trials/walk2/markers.trc
DataRate	CameraRate	NumFrames	NumMarkers	Units	OrigDataRate	OrigDataStartFrame	OrigNumFrames
200.00000000000426	200.00000000000426	4	64	m	200.00000000000426	0	223
Frame#	Time	CLAV			C7			RACR			RASH			RPSH			RLEL			RMEL			RUA1			RUA2			RUA3			RFAsuperior			RFAradius			RFAulna			RASI			RPSI			RCAL			RTOE			RMT5			RTH1			RTH2			RTH3			RTB1			RTB2			RTB3			RLFC			RMFC			RLMAL			RMMAL			RHJC			RKJC			REJC			RAJC			RSJC			LACR			LASH			LPSH			LLEL			LMEL			LUA1			LUA2			LUA3			LFAsuperior			LFAradius			LFAulna			LASI			LPSI			LCAL			LTOE			LMT5			LTH1			LTH2			LTH3			LTB1			LTB2			LTB3			LLFC			LMFC			LLMAL			LMMAL			LHJC			LKJC			LEJC			LAJC			LSJC			
		X1	Y1	Z1	X2	Y2	Z2	X3	Y3	Z3	X4	Y4	Z4	X5	Y5	Z5	X6	Y6	Z6	X7	Y7	Z7	X8	Y8	Z8	X9	Y9	Z9	X10	Y10	Z10	X11	Y11	Z11	X12	Y12	Z12	X13	Y13	Z13	X14	Y14	Z14	X15	Y15	Z15	X16	Y16	Z16	X17	Y17	Z17	X18	Y18	Z18	X19	Y19	Z19	X20	Y20	Z20	X21	Y21	Z21	X22	Y22	Z22	X23	Y23	Z23	X24	Y24	Z24	X25	Y25	Z25	X26	Y26	Z26	X27	Y27	Z27	X28	Y28	Z28	X29	Y29	Z29	X30	Y30	Z30	X31	Y31	Z31	X32	Y32	Z32	X33	Y33	Z33	X34	Y34	Z34	X35	Y35	Z35	X36	Y36	Z36	X37	Y37	Z37	X38	Y38	Z38	X39	Y39	Z39	X40	Y40	Z40	X41	Y41	Z41	X42	Y42	Z42	X43	Y43	Z43	X44	Y44	Z44	X45	Y45	Z45	X46	Y46	Z46	X47	Y47	Z47	X48	Y48	Z48	X49	Y49	Z49	X50	Y50	Z50	X51	Y51	Z51	X52	Y52	Z52	X53	Y53	Z53	X54	Y54	Z54	X55	Y55	Z55	X56	Y56	Z56	X57	Y57	Z57	X58	Y58	Z58	X59	Y59	Z59	X60	Y60	Z60	X61	Y61	Z61	X62	Y62	Z62	X63	Y63	Z63	X64	Y64	Z64	

1	3.38	0.9834270263967388	1.440941319575298	-0.5147695234547278	0.8749886921496948	1.522514786857549	-0.5081840037945335	0.9565301275284028	1.487454184123607	-0.3629197215490692	0.9968489017930984	1.422410063938428	-0.3209364257174496	0.8998932052876486	1.446053110646565	-0.3171080963768736	0.7564451332146833	1.15418499380323	-0.2776635358811773	0.7622591393560307	1.141917640324283	-0.3661404878863431	0.9109803433367137	1.38753793133358	-0.300093568993773	0.804659919069181	1.239488341663216	-0.3015738091798841	0.8812740399155273	1.289086725994776	-0.290569339442675	0.7697339402833486	1.055212780850078	-0.3147889748047167	0.7775423719015107	0.8849824787012722	-0.293013406712943	0.7161327321962838	0.8853226156679249	-0.3039824719827718	0.9616498463193686	0.9996411607509006	-0.403427347824259	0.7992497208549056	1.044553210937957	-0.4782533069551537	1.142877745515138	0.04201306565567393	-0.4450081523803185	1.37654135049365	0.1451144820297331	-0.4521311451092859	1.32042775931138	0.08666964069991141	-0.3624561100709625	0.9595425260269701	0.7764956050000641	-0.379230729107742	1.068680601802834	0.7363270080771974	-0.4397051459888435	1.014842060355288	0.6345970596407031	-0.3808040777350948	1.113415617208275	0.3554102110343504	-0.3899545117618315	1.19031526362583	0.2875403015806928	-0.4473403864732077	1.185118777590612	0.2028909168363415	-0.3798271706535082	1.048677132613958	0.5338929779594156	-0.3904509963734329	1.056324648945306	0.5344832885819683	-0.5039605372318589	1.205111066908979	0.0896394633986099	-0.381596275206993	1.222058303982345	0.0941203115982972	-0.4847935449317364	0.8799095677474068	0.9049952246798121	-0.4569054236617505	1.053247200884495	0.5341621740105446	-0.4488520397064872	0.7627509012922329	1.140762959379557	-0.3268249927994879	1.20660118649828	0.07479162462317268	-0.4420466091900936	0.9514300057651204	1.433485649168855	-0.3191430448378568	0.9478159494454632	1.499884553391207	-0.6603813308801697	0.9854534381461773	1.438665162211444	-0.7099246840735041	0.8807412859202914	1.464199652656232	-0.705790088385682	0.8881964816105694	1.121721393269658	-0.7945293647793236	0.8769336474665455	1.104742235807133	-0.7073667769200536	0.9270315725124192	1.393640365239275	-0.736307896191118	0.8912830577647484	1.216505368696357	-0.7601855305395218	0.942097890782599	1.292655179252012	-0.7518260632560951	0.9658363338570918	1.070975154300174	-0.7426336234768384	1.119010233059983	0.9933790978062578	-0.737146241650863	1.087086513026128	0.9400146135089918	-0.7421149285661902	0.9465341126912097	1.013831783442665	-0.6681035850288561	0.7939547898760544	1.049524082319273	-0.5709674578005803	0.5057623883137624	0.07980780805314019	-0.5739169737800374	0.7580634384485663	0.04255585755561337	-0.5585614646607359	0.6801950301167388	0.01033477834322125	-0.6451897483838943	0.8467226382316596	0.7600618976296161	-0.6850341535890275	0.9073854064542726	0.6625148513790982	-0.621896263386012	0.7986208661851543	0.6159733755587358	-0.6740601647358311	0.6915102214852172	0.3409677997584518	-0.6457000521754975	0.70607444277333	0.2425993170624249	-0.583053871804027	0.6437416931206028	0.1790308989667141	-0.6448943169557891	0.7606765173938663	0.517617020952595	-0.6577678007381851	0.7715813550243195	0.5190076869466793	-0.5445317667079067	0.5837196478973181	0.08137663180292148	-0.6354227140932469	0.6029687610890029	0.0793804487737092	-0.5325516772641251	0.8708187595823835	0.9135296585224897	-0.6160853190910317	0.7669922150680739	0.5176136105899916	-0.5994383234013657	0.8872848211272092	1.107414643809167	-0.7452216740963599	0.5771055463599187	0.07276907923292913	-0.5741113338203483	0.9400345421181994	1.449740747441871	-0.7081313031939113	
2	3.385	0.9898868494266377	1.44009562093366	-0.51393868558531	0.8814615104177149	1.521682055853629	-0.5073000512553643	0.962954695020836	1.486456389943563	-0.3620486258977748	1.003249502629797	1.421361532531702	-0.3201209944831213	0.9062970234406081	1.445018330406745	-0.3162961361315939	0.7628996526851518	1.153023640542005	-0.2774104078864443	0.7687414378285072	1.140917780685932	-0.3659077715104386	0.917387624588454	1.386452175993669	-0.2993743870576072	0.8111016037618712	1.238381164734066	-0.3011526250646055	0.8877012313218059	1.287977093113461	-0.2900367561637001	0.7762000227475331	1.054120941071009	-0.3147696834903759	0.7840730337583107	0.8838502482397559	-0.2933358410882803	0.7226399418962071	0.8842046318093908	-0.3041723336630721	0.9683557615798137	0.9989684728174748	-0.4031559090751526	0.8057726261886953	1.043755610447484	-0.4776586174288776	1.148837650487322	0.04151296986287579	-0.4452538029138231	1.383067307663557	0.1432594625514349	-0.4532186192951505	1.326943613006163	0.08512921258236898	-0.3633456453869671	0.9665328693710387	0.7758548589203869	-0.3789016386266708	1.075584204073945	0.735842994036676	-0.4396358787878982	1.022027428276828	0.6340340875475301	-0.3806144833348472	1.120406106197351	0.3547522198332325	-0.3900876966913237	1.196953216502567	0.2867083849904335	-0.4477383279852619	1.191786827111586	0.2020650629545435	-0.380215201795651	1.055980806682449	0.5333781316651551	-0.3903476154867154	1.063359720033288	0.5339860404687411	-0.5038748409579974	1.211508653586426	0.08876742716866531	-0.3820613747821189	1.228118269724713	0.09321833582926042	-0.4853148172791356	0.8865368331633778	0.9042473987493527	-0.4563800768116467	1.060456827601752	0.5336496027670155	-0.448766753978029	0.7692223718117365	1.13969205388403	-0.3265942933112075	1.212760293113782	0.07392178806408167	-0.4425176569158245	0.9578321137536215	1.432443559496266	-0.3183292395883483	0.9543284789657499	1.499195868675473	-0.6594997211787446	0.9919690662500692	1.43802085087343	-0.7090955036966972	0.8872603887257451	1.463570192578476	-0.7049646566770476	0.8949197808766794	1.121166156809204	-0.7941378465945041	0.8837501951871694	1.104049032782875	-0.7069902455718142	0.9335718961691671	1.393032754088795	-0.7355511734173363	0.8979552441357745	1.215902146662498	-0.7596573290569897	0.9487116451226441	1.292083607557098	-0.7512315133468279	0.972592564065955	1.070300217161285	-0.7423745214877254	1.125752459909828	0.9926582865882733	-0.7371515279286465	1.093817073560026	0.9393149295124219	-0.7422698566932646	0.9526508971314154	1.012946857864241	-0.6678091382268549	0.8002713269906482	1.048652136533426	-0.5703647087215868	0.5065000418215385	0.08181153599758592	-0.5738516741134742	0.7584493849554272	0.04212342532773812	-0.558828300951369	0.680111634773351	0.01040567302011593	-0.645218853603418	0.8521158653556259	0.7594869931031567	-0.6848493474844904	0.9128519959076785	0.6615492755941669	-0.6223904266275583	0.8036376087379071	0.6155108593043099	-0.6740584888727867	0.6946850061326904	0.3411614514218363	-0.645769602665736	0.7084751102931764	0.2425489744144697	-0.58333218399314	0.6452247300614762	0.1797330004652874	-0.6450095617939977	0.7654885686187621	0.5172180373601833	-0.6578609855625946	0.7770688577194153	0.5182051018985941	-0.5446877933017845	0.5842215289040924	0.08269858999488183	-0.6354363856187795	0.603872672283285	0.08034170010107655	-0.5326490276530751	0.8770917136957974	0.9126541899804613	-0.6155461348844182	0.7722053094212191	0.516934762896156	-0.5995552440728463	0.8940649369483359	1.106786100652762	-0.7448504669497639	0.5777704017408938	0.07406601745110125	-0.57411115996929	0.9465516773738936	1.449102877837994	-0.7073037488019241	
3	3.39	0.9963540361958051	1.439322755747602	-0.5131081793837591	0.8879253833724758	1.520897515447661	-0.5063807880087504	0.9694063921322041	1.485498800736042	-0.3611646062236622	1.009699505791745	1.420354586155483	-0.3193120727751583	0.9127458915103287	1.444003535206898	-0.3154675006827344	0.7695666164581985	1.151796525355711	-0.2770380687331384	0.775384209899374	1.139858976183914	-0.3655598863333075	0.9238774468673278	1.385377211477513	-0.2986265308425381	0.8176979456945157	1.237232806472376	-0.300639867716164	0.8942657982002277	1.286863511632377	-0.2894604820648188	0.7828618295956069	1.052968400455978	-0.3146404148491976	0.7908087800665814	0.882656803914216	-0.2935617810856767	0.7293482985826855	0.8830251748175086	-0.3042413622301279	0.9750403224005092	0.9983268658632515	-0.4028467999887637	0.8123321644591442	1.043042053914057	-0.4771194359972243	1.153470309598487	0.04118459175552629	-0.4454288184004411	1.388900582950106	0.1400353280030261	-0.4543975255657374	1.332462060216522	0.08256711095012793	-0.3642962287772051	0.9735910469669349	0.775372938182138	-0.3784893409302192	1.082669993305901	0.7356760647055296	-0.4393804943244713	1.029479654150423	0.6337082334425734	-0.3803021056905703	1.127305817560858	0.3541612766263941	-0.3901250046938486	1.203233094495033	0.2856792187665043	-0.4480756320711108	1.197817718672957	0.2010519400683818	-0.3805519064638494	1.063700982514821	0.533149218287218	-0.3900986549400076	1.070921566361656	0.533796059987263	-0.5036358453371893	1.216861446694116	0.08763999309600928	-0.3824960710302071	1.233111690907349	0.09201700941247887	-0.4858098388195322	0.8931294090232595	0.9035536878603014	-0.4558362135729963	1.068198111052443	0.5334242958635519	-0.4485413581750393	0.7758806680606428	1.13856072124372	-0.3262489293974236	1.217799561873041	0.07280155160543528	-0.4429597977215225	0.9642815851816158	1.431432936338618	-0.3175110829784623	0.9608070783875649	1.498597927029218	-0.6586008593924969	0.9984542493564479	1.437484212846559	-0.7082671730728654	0.8937443459325178	1.463025077822087	-0.7041150352130476	0.9016694207622686	1.120686835686664	-0.7936869059165014	0.8906225923494938	1.103438239067591	-0.7065495807331494	0.9400859406347953	1.392516491179245	-0.7347747645311813	0.9046395103455739	1.215379028234169	-0.7590806183555835	0.9553203469860011	1.291605921392456	-0.7506109576529134	0.9793584750744287	1.069628105439727	-0.7420981222119885	1.13242610090782	0.991781992206922	-0.7372208980011299	1.10042063555424	0.9384932348782208	-0.7424686084198951	0.9588875379326814	1.012037157610772	-0.6674870939169854	0.8066739621530332	1.047844668877303	-0.5698209961757177	0.5073171809724453	0.08396315179137054	-0.5737454021346104	0.7588626169130638	0.04166038525259145	-0.5590931335076147	0.6800241901080993	0.01051718289346852	-0.6452369081422363	0.8576074849501958	0.7589384830054424	-0.6846686143158008	0.9184604859628748	0.6606252890209454	-0.6229173469908563	0.8088105881493439	0.6150553164360835	-0.6740757705750605	0.6980122190039298	0.3413765481083384	-0.645846461311551	0.7109895528978504	0.2425281382728323	-0.5836082132418949	0.6468047436645467	0.180493687239877	-0.6451110039407978	0.7704979052266674	0.5168089760066324	-0.6579828485059497	0.7827698515544744	0.517375556244776	-0.544879678087428	0.5847913012660548	0.08411332593483095	-0.6354222483206544	0.604842637199707	0.08139155204240928	-0.5327212298359026	0.8834149043528121	0.9117992441283096	-0.6149944922261162	0.7776288601902633	0.5162294335694353	-0.5997045033894918	0.9008892708644415	1.10623857066267	-0.7444182386990663	0.5785016622502893	0.07546083107579454	-0.5740830567289329	0.9530363287463183	1.448562563029694	-0.7064661832761694	
4	3.395	1.00282511860197	1.438608227073623	-0.5122660030441641	0.8943854533008089	1.520159343739034	-0.5054303371721648	0.9758731847210191	1.484581493007596	-0.3602617131196634	1.016175712994485	1.419387985534788	-0.3184950870179992	0.9192189316119224	1.443018680645384	-0.3146182789799286	0.7763970501400068	1.150522572686974	-0.2765633888216844	0.7821651529595222	1.138748930016719	-0.3651103932489948	0.9304195177346744	1.384321422887994	-0.29784737641016	0.824411660652221	1.236056805193225	-0.300047854905939	0.9009294978082172	1.285757065725561	-0.2888350811392311	0.7896988143592794	1.051770794994728	-0.3144044739611248	0.7977624119491616	0.8814222842496544	-0.2936712633903362	0.736272135650731	0.8817897761140301	-0.3041779662626892	0.9818452316206067	0.997775869323647	-0.4025866120482293	0.8189665870262981	1.042357550590975	-0.4765652440525828	1.156962953632613	0.04071673109590031	-0.4454562332787072	1.393759572736657	0.1361333102462328	-0.455573395897286	1.336942852965727	0.07945585414614967	-0.3652092834020131	0.9808194075874608	0.7750114541056646	-0.3780285372056482	1.089980998355721	0.7356879709588957	-0.4390137947198037	1.037188959032888	0.6335381000817876	-0.3798926372594635	1.134053939766424	0.3535571755091198	-0.3900472785232358	1.209109645050159	0.2843955304861726	-0.4483252915887432	1.203207509246802	0.1998102289474835	-0.3807897626310417	1.071744449034171	0.5330965290285964	-0.3897209706061518	1.078865859581203	0.5337705558039031	-0.5032642664817198	1.22120875038906	0.0862297987331932	-0.3828279624603468	1.237063456260157	0.09047521884411008	-0.4862086571449626	0.8998553577511256	0.9029189763768187	-0.4553034157678738	1.076336824397952	0.5333606832978018	-0.4481923949920655	0.7826912923198694	1.137381502367669	-0.3258021677636253	1.221757270807414	0.07139316437246757	-0.4432969219152356	0.9707563087558235	1.430457784659346	-0.316678996292565	0.9672681846472585	1.498069128024671	-0.6576804376159787	1.004923020590336	1.437025662095579	-0.7074272652054885	0.9002096966971689	1.462546812815022	-0.7032403125243721	0.9083866166750536	1.120274028278731	-0.7931820984375426	0.8974941376990111	1.102898543590463	-0.7060505520434713	0.9465753299612111	1.392071300178487	-0.7339731787350748	0.911299047787381	1.214924303891975	-0.7584564455036029	0.96190353622764	1.29119947153043	-0.7499649116620499	0.986083598242271	1.068967690377919	-0.7418062911170532	1.139002192089437	0.9908040217126451	-0.7373512606660305	1.106884334608047	0.9375945842470171	-0.742715860387556	0.9651328567218721	1.011199495541551	-0.6672068540946152	0.8131123642834046	1.047059748715008	-0.5692597802034683	0.5082320195482662	0.08630171912618018	-0.5735981552666014	0.7593084929838113	0.04116785227543691	-0.559355335125304	0.6799339246044446	0.01067802935456583	-0.6452401131445005	0.8631994339819234	0.7584436000925638	-0.684507081180927	0.9242037251198012	0.6597665794601413	-0.6234897646077386	0.8141284810370404	0.6146383922188393	-0.6741236875444252	0.7014818865280816	0.3416473256730841	-0.6459367149346258	0.7136181387513029	0.242572833699327	-0.5838885460100008	0.648484559702017	0.1813451580221105	-0.6452020414773512	0.7756841440011923	0.5164252038103885	-0.6581427678663884	0.7886639398284075	0.5165568194982935	-0.5451172998684434	0.5854402887473057	0.08564943176458106	-0.6353805881886527	0.6058949542415506	0.08255965636551355	-0.5327695591949193	0.8898043077707714	0.9109921280893238	-0.6144496349460387	0.7832409839304993	0.5155356497240615	-0.5998962746735881	0.9076992282685024	1.105760439798123	-0.7439312526372609	0.5793143741207479	0.07698145739839274	-0.5740270141954824	0.959503616351675	1.448095461220137	-0.7056111744800542	
